<svg width="22" height="26" viewBox="0 0 22 26" fill="none" xmlns="http://www.w3.org/2000/svg">
<path fill-rule="evenodd" clip-rule="evenodd" d="M14.5816 4.18134C15.4216 3.09701 16.0583 1.56441 15.828 0C14.4551 0.0954091 12.8504 0.973778 11.9141 2.11869C11.0605 3.15607 10.359 4.69928 10.633 6.19705C12.1338 6.24399 13.6829 5.34442 14.5816 4.18134ZM22 18.8971C21.3994 20.2358 21.1103 20.834 20.3366 22.0198C19.2572 23.6751 17.7353 25.7362 15.8476 25.7514C14.1721 25.7695 13.7401 24.6534 11.4655 24.667C9.19086 24.6791 8.71667 25.7726 7.03819 25.7559C5.15196 25.7392 3.70983 23.8795 2.63048 22.2243C-0.389282 17.5992 -0.706914 12.17 1.15522 9.28194C2.47994 7.2314 4.56939 6.03197 6.53238 6.03197C8.53 6.03197 9.78698 7.13448 11.4414 7.13448C13.0461 7.13448 14.0231 6.02895 16.3338 6.02895C18.083 6.02895 19.9361 6.98758 21.2548 8.64134C16.9314 11.025 17.6314 17.2357 22 18.8971Z" fill="#0B0B0A"/>
</svg>
