<svg width="41" height="41" viewBox="0 0 41 41" fill="none" xmlns="http://www.w3.org/2000/svg">
<path d="M40.1266 20.5C40.1266 31.4091 31.3383 40.25 20.5008 40.25C9.66323 40.25 0.875 31.4091 0.875 20.5C0.875 9.59091 9.66323 0.75 20.5008 0.75C31.3383 0.75 40.1266 9.59091 40.1266 20.5Z" fill="#1A4ADA" stroke="white" stroke-width="0.5"/>
<g clip-path="url(#clip0_3174_88144)">
<path d="M31.2738 10H20.376C19.6533 10.0008 18.9603 10.2902 18.4492 10.8048C17.9381 11.3194 17.6506 12.0171 17.6497 12.7448V13.3323H10.7264C10.0035 13.3331 9.31048 13.6226 8.79937 14.1373C8.28832 14.652 8.00077 15.3497 8 16.0775V24.57C8.00078 25.2978 8.28832 25.9955 8.79937 26.5102C9.3105 27.0248 10.0035 27.3143 10.7264 27.3151H12.491L16.2753 29.8782C16.4352 29.9865 16.6321 30.0247 16.8206 29.9842C17.0091 29.9436 17.1732 29.8277 17.2752 29.663C17.3773 29.4983 17.4085 29.2989 17.3617 29.1105L16.9161 27.3152H21.624C22.3467 27.3143 23.0398 27.0249 23.5509 26.5102C24.062 25.9956 24.3495 25.2979 24.3502 24.57V23.9825H25.0833L24.6377 25.7782C24.5908 25.9666 24.6221 26.1661 24.7243 26.3308C24.8264 26.4956 24.9905 26.6116 25.1792 26.652C25.3679 26.6925 25.5647 26.6541 25.7247 26.5456L29.5096 23.9839H31.2742C31.997 23.9829 32.6899 23.6934 33.2009 23.1787C33.7119 22.664 33.9993 21.9662 34 21.2385V12.7449C33.9991 12.0171 33.7116 11.3194 33.2005 10.8048C32.6894 10.2903 31.9966 10.0008 31.2738 10ZM22.9291 24.5701C22.9285 24.9184 22.7909 25.2521 22.5462 25.4983C22.3015 25.7445 21.9699 25.883 21.6241 25.8833H16.0063C15.7874 25.8833 15.5808 25.9848 15.4461 26.1585C15.3113 26.3322 15.2636 26.5587 15.3166 26.7725L15.5344 27.6505L13.1047 26.0051C12.9873 25.9257 12.8494 25.8833 12.708 25.8833H10.7264C10.3805 25.8829 10.049 25.7444 9.80438 25.4982C9.55987 25.2519 9.42223 24.918 9.4219 24.5698V16.0776C9.42225 15.7293 9.55988 15.3955 9.80438 15.1492C10.049 14.903 10.3805 14.7645 10.7264 14.7641H17.6498V16.1051L11.293 16.1052C11.039 16.1052 10.8044 16.2416 10.6774 16.4631C10.5504 16.6846 10.5504 16.9575 10.6774 17.179C10.8044 17.4005 11.039 17.5369 11.293 17.5369H17.6498V19.6081L11.293 19.6082C11.102 19.6043 10.9176 19.6781 10.7812 19.8127C10.6449 19.9473 10.568 20.1315 10.568 20.3238C10.568 20.5162 10.6449 20.7004 10.7812 20.835C10.9176 20.9697 11.102 21.0434 11.293 21.0396H17.6498V21.2367C17.6494 21.9326 17.9127 22.6024 18.3859 23.1098H11.2932C11.0392 23.1098 10.8046 23.2462 10.6776 23.4677C10.5506 23.6891 10.5506 23.962 10.6776 24.1835C10.8046 24.405 11.0392 24.5414 11.2932 24.5414H21.0575C21.2191 24.5413 21.3758 24.4859 21.5018 24.384C21.6279 24.2823 21.7157 24.1403 21.7508 23.9815H22.9292L22.9291 24.5701ZM26.5356 20.7981C26.5356 21.0539 26.4001 21.2901 26.1801 21.418C25.9601 21.5459 25.6891 21.5459 25.4692 21.418C25.2492 21.2901 25.1137 21.0538 25.1137 20.798V20.7499C25.1137 20.4941 25.2492 20.2579 25.4692 20.13C25.6891 20.0021 25.9602 20.0021 26.1801 20.13C26.4001 20.2579 26.5356 20.4942 26.5356 20.75V20.7981ZM27.8379 15.6774C27.8388 16.2961 27.5576 16.881 27.0752 17.2642C26.7266 17.5308 26.526 17.9494 26.5356 18.3902V19.1069C26.5356 19.3625 26.4001 19.5989 26.1801 19.7268C25.9601 19.8546 25.6891 19.8546 25.4692 19.7268C25.2492 19.5989 25.1137 19.3625 25.1137 19.1069V18.3904C25.1061 17.5138 25.5038 16.6836 26.1901 16.1441C26.3324 16.0319 26.4158 15.86 26.416 15.6779V14.4957C26.416 14.2829 26.3032 14.0864 26.1203 13.9801C25.9373 13.8737 25.712 13.8737 25.529 13.9801C25.3461 14.0863 25.2333 14.2829 25.2333 14.4957V15.6779C25.2333 15.9337 25.0979 16.17 24.8779 16.2979C24.658 16.4258 24.3869 16.4258 24.167 16.2979C23.947 16.17 23.8115 15.9337 23.8115 15.6779V14.4957C23.8115 13.7715 24.1952 13.1024 24.8179 12.7404C25.4408 12.3783 26.2081 12.3783 26.8309 12.7404C27.4536 13.1024 27.8373 13.7715 27.8373 14.4957L27.8379 15.6774Z" fill="white"/>
</g>
<defs>
<clipPath id="clip0_3174_88144">
<rect width="26" height="20" fill="white" transform="translate(8 10)"/>
</clipPath>
</defs>
</svg>
