<svg width="39" height="30" viewBox="0 0 39 30" fill="none" xmlns="http://www.w3.org/2000/svg">
<path d="M1.73402 11.9878C1.79746 11.8905 1.857 11.7994 1.9107 11.7074C1.95271 11.6357 1.9867 11.4259 2.01658 11.2408C2.0313 11.1474 2.04884 11.042 2.0692 10.9322C2.21513 10.149 2.5475 9.53107 2.84111 8.98564C2.93357 8.81416 3.02018 8.65263 3.09856 8.49197C3.54222 7.57996 4.09804 6.81325 4.90178 6.00496C5.70964 5.19212 6.6368 4.68285 7.38164 4.2734C7.55898 4.17618 7.74302 4.05883 7.94374 3.91484C8.06153 3.82455 8.15507 3.75526 8.21223 3.71325L8.23064 3.69961C8.50303 3.48785 8.7752 3.25725 9.00905 3.05675C9.97107 2.23633 11.0515 1.71711 12.1348 1.55428C12.7844 1.45728 13.3764 1.40791 13.8962 1.40791C14.4142 1.40791 14.8671 1.45814 15.2593 1.55991C16.2057 1.01686 17.412 0.807052 18.3907 0.806619C18.8915 0.806619 19.5268 0.859451 20.1436 1.05779C20.5609 0.887599 21.0663 0.796875 21.6407 0.796875C22.0707 0.796875 22.7097 0.853605 23.3147 1.12448C23.3887 1.15761 23.4602 1.19312 23.5292 1.23122C23.8605 1.12534 24.2206 1.07013 24.5971 1.07013C25.638 1.07013 26.6795 1.48976 27.316 2.16575L27.3377 2.18892C27.3949 2.18697 27.4529 2.18567 27.5114 2.18567C28.4786 2.18567 29.5101 2.49898 30.1029 2.80969C30.6993 3.12214 31.1269 3.58529 31.4703 3.95728C31.5366 4.02895 31.6015 4.09975 31.6669 4.16752C31.7691 4.27297 31.9209 4.43103 31.9768 4.47391C31.9923 4.4804 32.0398 4.49794 32.1521 4.52631C33.2449 4.80519 34.1123 5.49591 34.6614 6.52353C34.9377 7.0406 35.1324 7.63929 35.2426 8.3103C35.5596 8.55779 35.8036 8.8436 35.9621 9.0571C36.4748 9.745 36.7875 10.5814 36.8432 11.4125C36.8997 12.2586 36.8497 12.7943 36.7643 13.2007C36.776 13.2159 36.7879 13.2319 36.8007 13.2479C37.0603 13.5853 37.4522 14.0952 37.5603 14.8918C37.6363 15.4543 37.6432 16.3204 37.4871 16.9886C37.3578 17.5351 37.0803 18.0888 36.6368 18.6834C36.5848 18.7524 36.532 18.8144 36.4835 18.8679C36.4692 18.9672 36.4463 19.0837 36.4073 19.2126C35.929 20.7945 34.6155 21.4285 33.8228 21.8072C33.6901 21.9793 33.5266 22.1896 33.3298 22.3838C33.1958 22.5163 33.049 22.6443 32.8933 22.7638C32.5414 23.9055 31.9477 24.91 31.1555 25.6955C29.8425 26.9982 28.0392 27.6939 25.7965 27.7644C25.7696 27.7662 25.7417 27.767 25.714 27.767H25.7135C25.6131 27.7694 25.5104 27.7707 25.4087 27.7707C25.1755 27.7707 24.9369 27.7642 24.6939 27.751C24.4057 28.0983 24.0374 28.3989 23.6033 28.636C22.9063 29.0164 22.0514 29.2262 21.196 29.2262C20.2246 29.2262 19.3224 28.9685 18.5877 28.4814C18.0763 28.1429 17.6683 27.7092 17.3756 27.1989C16.7873 27.3089 16.0245 27.4124 15.2298 27.4124C13.4764 27.4124 12.1381 26.925 11.2522 25.9638C10.8352 25.5119 10.5392 24.9786 10.3647 24.368C10.0297 24.4222 9.71557 24.449 9.41785 24.449C9.2678 24.449 9.11948 24.4421 8.97765 24.4282C8.21635 24.355 6.77494 24.1387 5.66633 23.5108C4.95873 23.1105 4.63199 22.6046 4.39987 22.0991C4.35614 22.0837 4.3098 22.0664 4.26086 22.0469C2.79975 21.4644 1.89424 20.0871 1.89641 18.451C1.89641 18.3079 1.90377 18.1702 1.91027 18.0368C1.91676 17.9071 1.92607 17.7188 1.91871 17.6231C1.891 17.5726 1.83795 17.4905 1.79659 17.4275C1.67793 17.2439 1.53005 17.0153 1.41269 16.7346C0.932439 15.5795 0.824825 14.4012 1.10003 13.3244C1.25376 12.7235 1.5203 12.3154 1.73402 11.9878Z" fill="white"/>
<path d="M18.0663 25.5351C18.0663 25.5351 10.6646 27.7705 11.7516 21.8343C12.0047 20.4528 14.8853 21.3473 14.8853 21.3473L18.0663 25.5351Z" fill="white"/>
<path d="M18.0663 25.5351L18.1419 25.7858C18.1358 25.7874 17.7868 25.8926 17.2496 25.998C16.7128 26.1031 15.9883 26.2091 15.2281 26.2091C14.7836 26.2091 14.3269 26.173 13.8863 26.0771C13.5561 26.005 13.2347 25.8991 12.9366 25.7469C12.4895 25.5199 12.0937 25.1859 11.8156 24.7201C11.5374 24.2546 11.3804 23.665 11.3809 22.9409C11.3809 22.5901 11.4175 22.2065 11.4941 21.7873C11.5283 21.5967 11.6073 21.4283 11.7184 21.2934C11.8018 21.1923 11.902 21.11 12.0107 21.0455C12.1738 20.9485 12.355 20.8889 12.543 20.8517C12.7315 20.8149 12.9273 20.8008 13.1235 20.8008C13.5751 20.8008 14.0298 20.8753 14.3756 20.9489C14.7214 21.0221 14.9574 21.0957 14.9631 21.0974C15.0155 21.1132 15.0607 21.1453 15.0938 21.189L18.2748 25.3768C18.3268 25.445 18.3415 25.5342 18.3153 25.6157C18.2887 25.6975 18.2241 25.7607 18.1419 25.7858L18.0663 25.5351L17.8578 25.6934L14.6772 21.5056L14.8853 21.3473L14.8078 21.5972L14.8061 21.5967C14.7844 21.5898 14.5564 21.5212 14.2362 21.4545C13.917 21.3873 13.505 21.3239 13.1235 21.3243C12.8197 21.323 12.5378 21.367 12.3463 21.4588C12.2502 21.5047 12.177 21.5604 12.1222 21.6262C12.0683 21.6929 12.0296 21.771 12.0088 21.8817C11.9371 22.274 11.904 22.6261 11.904 22.9409C11.9044 23.5188 12.014 23.9688 12.1939 24.3226C12.3297 24.5882 12.5051 24.8022 12.7138 24.978C13.0267 25.2419 13.4175 25.4197 13.8521 25.531C14.2858 25.6423 14.7604 25.686 15.2281 25.6856C15.9402 25.686 16.6346 25.5853 17.1489 25.4844C17.4061 25.434 17.6183 25.3833 17.7651 25.3456C17.8385 25.327 17.8959 25.3114 17.9342 25.3008C17.9535 25.2954 17.9678 25.2909 17.9775 25.2885L17.9879 25.2852L17.9907 25.2844L18.0663 25.5351L17.8578 25.6934L18.0663 25.5351Z" fill="#1A4ADA"/>
<path d="M31.7785 20.5762C31.7785 20.8172 31.7785 27.1529 23.8896 26.2097C23.3442 28.1948 18.8788 28.543 18.3535 25.6491L19.2378 21.5499L31.7785 20.5762Z" fill="white"/>
<path d="M31.7782 20.5761H32.0404C32.0404 20.6069 32.04 20.726 32.0268 20.9055C32.0045 21.2207 31.9423 21.7274 31.7713 22.3144C31.6431 22.7548 31.4534 23.2403 31.1713 23.7229C30.7486 24.4463 30.1157 25.1628 29.1812 25.6937C28.2475 26.2249 27.0183 26.5672 25.4158 26.5672C24.9317 26.5672 24.4133 26.5356 23.8581 26.4695L23.8893 26.2097L24.1416 26.2788C24.0634 26.5639 23.9157 26.8188 23.7232 27.0355C23.4335 27.361 23.0438 27.6048 22.6073 27.7704C22.1705 27.9352 21.6853 28.0214 21.196 28.0214C20.515 28.0212 19.8225 27.8546 19.2518 27.477C18.9673 27.2882 18.7137 27.0461 18.5139 26.7484C18.314 26.4511 18.1689 26.0984 18.0962 25.6957C18.0899 25.6612 18.0903 25.6277 18.0977 25.5939L18.9816 21.4944C19.006 21.3818 19.1022 21.2976 19.2171 21.2887L31.7583 20.3152C31.831 20.3096 31.9025 20.3345 31.9562 20.3841C32.0097 20.4335 32.0404 20.5034 32.0404 20.5761H31.7782L31.7988 20.8371L19.4521 21.7958L18.6091 25.7043L18.3532 25.6491L18.6109 25.6019C18.6721 25.9386 18.7899 26.2194 18.9484 26.4568C19.1868 26.8114 19.5205 27.0693 19.9115 27.2423C20.3019 27.4145 20.7493 27.498 21.196 27.498C21.7659 27.4989 22.3338 27.361 22.7757 27.1193C22.9964 26.9983 23.186 26.8521 23.332 26.6878C23.4783 26.5226 23.5818 26.3407 23.6366 26.1402C23.6708 26.0155 23.7914 25.9345 23.9203 25.9497C24.4566 26.0137 24.9542 26.0436 25.4158 26.0436C26.9692 26.0432 28.1126 25.7087 28.9629 25.2152C29.6006 24.8445 30.0765 24.3829 30.4349 23.8929C30.9725 23.1584 31.2453 22.3569 31.3813 21.7233C31.4493 21.4067 31.4831 21.1333 31.5004 20.9321C31.5171 20.7303 31.5166 20.6045 31.5166 20.5761H31.7782L31.7988 20.8371L31.7782 20.5761Z" fill="#1A4ADA"/>
<path d="M25.6872 26.5613C25.6824 26.5605 23.9935 26.3935 22.2496 26.0406C21.3768 25.8635 20.4914 25.6415 19.7849 25.3633C19.4313 25.2234 19.1223 25.0706 18.8761 24.8924C18.7532 24.8031 18.6451 24.7066 18.5576 24.5979C18.4702 24.4894 18.4019 24.3666 18.3688 24.2298C18.3346 24.0895 18.4208 23.9479 18.5613 23.9137C18.7016 23.8797 18.843 23.9658 18.877 24.1062C18.8885 24.1525 18.9147 24.2068 18.9649 24.2694C19.058 24.3863 19.2367 24.5225 19.4792 24.6505C19.904 24.8772 20.5155 25.0844 21.1858 25.2596C22.1924 25.5233 23.3337 25.7197 24.2208 25.8483C24.6643 25.9131 25.0445 25.9613 25.3137 25.9927C25.4481 26.0088 25.5549 26.0207 25.6276 26.0287C25.664 26.0324 25.6917 26.0354 25.7105 26.0373C25.7298 26.0395 25.7387 26.0402 25.7387 26.0402C25.8827 26.0544 25.9877 26.1826 25.9734 26.3264C25.9591 26.4704 25.8311 26.5756 25.6872 26.5613Z" fill="#1A4ADA"/>
<path d="M30.4799 21.9419L28.7109 25.8601C28.6515 25.992 28.4967 26.0504 28.3651 25.9911C28.2334 25.9314 28.1745 25.7768 28.2343 25.6447L30.0031 21.7264C30.0624 21.5946 30.2175 21.5361 30.3493 21.5954C30.481 21.6548 30.5394 21.8098 30.4799 21.9419Z" fill="#1A4ADA"/>
<path d="M29.1371 21.9425L27.1621 26.2973C27.1026 26.4289 26.9475 26.4874 26.8159 26.4276C26.6843 26.3675 26.6258 26.2126 26.6856 26.0808L28.6605 21.7262C28.7202 21.5946 28.8755 21.5359 29.0067 21.5957C29.1383 21.6554 29.1968 21.8109 29.1371 21.9425Z" fill="#1A4ADA"/>
<path d="M27.9258 21.9425L25.9513 26.2973C25.8915 26.4289 25.7363 26.4874 25.605 26.4276C25.4734 26.3679 25.4149 26.2126 25.4745 26.0808L27.4494 21.7262C27.5092 21.5946 27.6642 21.5359 27.7959 21.5957C27.9275 21.6554 27.9855 21.8109 27.9258 21.9425Z" fill="#1A4ADA"/>
<path d="M26.7146 21.9425L24.7401 26.2973C24.6803 26.4289 24.5253 26.4874 24.3936 26.4276C24.2622 26.3679 24.204 26.2126 24.2637 26.0808L26.2378 21.7262C26.2975 21.5946 26.4528 21.5359 26.584 21.5957C26.7157 21.6554 26.7741 21.8109 26.7146 21.9425Z" fill="#1A4ADA"/>
<path d="M23.6191 23.3708L22.4328 25.8078L22.5133 27.4051C22.5207 27.5495 22.4094 27.6727 22.2652 27.6801C22.1208 27.6875 21.9982 27.5762 21.9909 27.4318L21.9066 25.7669C21.9042 25.7227 21.9131 25.679 21.9328 25.6389L23.1491 23.1413C23.2123 23.0114 23.3688 22.9573 23.4985 23.0207C23.6284 23.0841 23.6824 23.2407 23.6191 23.3708Z" fill="#1A4ADA"/>
<path d="M23.3552 25.9844V27.2347C23.3552 27.3791 23.2378 27.4964 23.0936 27.4964C22.9492 27.4964 22.832 27.3791 22.832 27.2347V25.9844C22.832 25.8396 22.9492 25.7227 23.0936 25.7227C23.2378 25.7227 23.3552 25.8396 23.3552 25.9844Z" fill="#1A4ADA"/>
<path d="M22.4914 23.3593L21.5251 25.6114V27.611C21.5251 27.7552 21.4082 27.8726 21.2635 27.8726C21.1191 27.8726 21.002 27.7552 21.002 27.611V25.5575C21.002 25.5227 21.0093 25.4863 21.0232 25.4544L22.0107 23.1528C22.0677 23.0198 22.2216 22.9586 22.3546 23.0153C22.4871 23.0727 22.5484 23.2264 22.4914 23.3593Z" fill="#1A4ADA"/>
<path d="M21.1574 23.3479L20.4535 25.2221V27.5348C20.4535 27.6792 20.3361 27.7966 20.1919 27.7966C20.047 27.7966 19.9297 27.6792 19.9297 27.5348L19.9301 25.1747C19.9301 25.1437 19.936 25.1117 19.947 25.0827L20.6676 23.1638C20.7183 23.0285 20.8692 22.9601 21.0045 23.011C21.1394 23.0621 21.2081 23.213 21.157 23.3479" fill="#1A4ADA"/>
<path d="M20.1413 23.0472L19.4374 24.921V26.9388C19.4374 27.0833 19.3205 27.2006 19.1758 27.2006C19.0314 27.2006 18.9141 27.0833 18.9141 26.9388V24.8736C18.9141 24.8424 18.9199 24.8106 18.931 24.7816L19.6515 22.8632C19.7024 22.7276 19.8531 22.6594 19.9885 22.7101C20.1234 22.7608 20.192 22.9117 20.1409 23.0472" fill="#1A4ADA"/>
<path d="M25.5984 21.7371L23.6231 26.0919C23.5633 26.2235 23.4081 26.282 23.2768 26.2222C23.1452 26.162 23.0867 26.0072 23.1465 25.8753L25.1221 21.5208C25.1818 21.3892 25.3366 21.3309 25.4683 21.3907C25.5999 21.4504 25.658 21.6055 25.5984 21.7371Z" fill="#1A4ADA"/>
<path d="M24.292 21.9425L22.5039 25.8855C22.4442 26.0171 22.2893 26.0751 22.1577 26.0154C22.026 25.9556 21.9676 25.8008 22.0273 25.6689L23.8158 21.7262C23.8754 21.5946 24.0304 21.5359 24.1621 21.5957C24.2937 21.6554 24.3517 21.8109 24.292 21.9425Z" fill="#1A4ADA"/>
<path d="M23.0839 21.9363L21.5044 25.6591C21.4479 25.792 21.2941 25.8542 21.1614 25.7972C21.0285 25.7413 20.9663 25.5876 21.0228 25.4542L22.6024 21.7317C22.6589 21.5988 22.8126 21.5366 22.9454 21.5932C23.0787 21.6497 23.1405 21.8034 23.0839 21.9363Z" fill="#1A4ADA"/>
<path d="M21.8731 21.9363L20.4326 25.3369C20.376 25.47 20.2223 25.5324 20.0896 25.4759C19.9562 25.4194 19.8941 25.2661 19.9506 25.1327L21.3911 21.7317C21.4474 21.5988 21.6011 21.5366 21.7341 21.5932C21.8672 21.6497 21.9294 21.8034 21.8731 21.9363Z" fill="#1A4ADA"/>
<path d="M2.52071 13.6866C2.64976 13.1804 2.9176 12.8887 3.17592 12.447C3.40413 12.0586 3.42817 11.6372 3.51001 11.2022C3.65314 10.437 4.07623 9.83289 4.41661 9.13243C4.81804 8.30791 5.31605 7.66656 5.94159 7.03799C6.57753 6.3975 7.3122 5.98372 8.08823 5.5576C8.75729 5.18994 9.37547 4.67223 9.96203 4.17032C10.6406 3.59134 11.4571 3.13728 12.3536 3.00282C13.1214 2.88828 14.8644 2.68778 15.4548 3.2568C16.3484 2.20687 19.2109 1.92344 20.32 2.76096C20.4642 2.07891 23.1508 2.00767 23.2764 3.10459C24.1102 1.97454 26.6172 2.67435 26.5435 3.90378C27.2111 3.393 28.7543 3.75655 29.424 4.10688C29.8899 4.35156 30.2541 4.81167 30.6136 5.1841C31.0702 5.65785 31.2136 5.79881 31.7912 5.94605C33.3067 6.33255 33.7924 7.84086 33.8742 9.24524C34.3839 9.28768 35.3 10.2792 35.3823 11.5092C35.5122 13.4564 34.975 13.11 35.3626 13.7496C35.6406 14.2089 36.0289 14.4947 36.1094 15.0882C36.1711 15.5442 36.1651 16.21 36.0613 16.6537C35.9652 17.0609 35.7182 17.4643 35.4635 17.8062C35.3682 17.9325 35.1823 18.0819 35.1169 18.2131C35.0192 18.4114 35.0716 18.571 35.0058 18.7882C34.7265 19.7123 33.9587 20.1176 33.1809 20.4894C32.9219 20.6124 32.8975 20.6068 32.6848 20.8837C32.5684 21.0346 32.4371 21.2059 32.3012 21.3401C32.0063 21.6316 31.5799 21.9219 31.1843 22.0622C30.8184 22.1924 30.43 22.075 30.0547 22.1744C29.6942 22.2697 29.3471 22.6352 28.9628 22.8073C28.0347 23.2237 26.8259 22.8982 25.9892 23.4651C23.8058 24.9442 21.5557 24.6125 20.8255 24.1199C17.2232 27.6241 13.0897 23.9083 14.7091 21.5359C15.1392 20.6423 11.4407 23.191 9.11802 22.9686C8.25322 22.885 7.14266 22.6614 6.38872 22.2344C5.96151 21.9927 5.82662 21.7236 5.64301 21.2823C5.4215 20.7486 5.33272 20.8947 4.8031 20.6841C3.88071 20.3164 3.36126 19.4457 3.36234 18.4519C3.36278 18.0528 3.44246 17.5317 3.31493 17.1612C3.19757 16.8173 2.90894 16.5123 2.76517 16.1682C2.44146 15.3891 2.3044 14.5315 2.52071 13.6866Z" fill="white"/>
<path d="M2.52066 13.6867L2.26711 13.6222C2.33921 13.3379 2.4531 13.1106 2.57587 12.9077C2.69886 12.7039 2.82856 12.5231 2.95024 12.315C3.04508 12.1531 3.1003 11.9805 3.14209 11.7872C3.18366 11.594 3.21029 11.3818 3.25273 11.154C3.33046 10.7377 3.48333 10.3713 3.65503 10.0266C3.82674 9.68123 4.01685 9.35666 4.18162 9.01802C4.59649 8.16447 5.11701 7.49541 5.75598 6.85363C6.42418 6.18132 7.18591 5.75476 7.96215 5.32778C8.60069 4.9783 9.20696 4.47229 9.79201 3.97125L9.79244 3.97081C10.4979 3.36931 11.3549 2.88884 12.3147 2.74398C12.69 2.6879 13.293 2.61147 13.8971 2.61103C14.2254 2.61147 14.5541 2.63355 14.8533 2.69829C15.0029 2.73099 15.1456 2.77386 15.2781 2.83319C15.4102 2.89295 15.5323 2.96852 15.6367 3.06834L15.4548 3.25693L15.2556 3.08717C15.415 2.90074 15.6174 2.74355 15.8476 2.60995C16.1934 2.41032 16.6039 2.26178 17.0408 2.16174C17.4774 2.06149 17.9414 2.00996 18.3933 2.00953C18.793 2.00996 19.1834 2.05002 19.5391 2.13663C19.8946 2.22389 20.2168 2.35597 20.4773 2.55214L20.3199 2.76109L20.0635 2.70631C20.08 2.6303 20.1127 2.56037 20.1538 2.50017C20.2266 2.39559 20.3232 2.31981 20.4295 2.2581C20.5893 2.16651 20.7766 2.10523 20.9825 2.06301C21.1886 2.02144 21.4125 2 21.6416 2C22.0486 2.00087 22.4698 2.06517 22.8242 2.22259C23.0011 2.30184 23.1631 2.4062 23.2924 2.54738C23.421 2.68725 23.5139 2.86957 23.5364 3.07483L23.2763 3.10471L23.0659 2.94925C23.2452 2.70587 23.4877 2.53503 23.7525 2.42742C24.0184 2.31981 24.3076 2.27325 24.598 2.27325C25.1183 2.27412 25.6453 2.42136 26.0635 2.68357C26.272 2.81565 26.4547 2.97761 26.5887 3.17335C26.723 3.36844 26.8072 3.60077 26.8068 3.85107C26.8068 3.87316 26.8064 3.89698 26.8042 3.92188L26.5435 3.90391L26.3843 3.69604C26.5402 3.57717 26.7208 3.50182 26.9118 3.45483C27.1032 3.40785 27.3054 3.38901 27.5122 3.38901C27.8859 3.38901 28.274 3.45029 28.6291 3.54058C28.9844 3.63152 29.3044 3.74974 29.5454 3.87554C29.8135 4.01628 30.0391 4.21051 30.2426 4.41187C30.4464 4.61303 30.6287 4.82327 30.8019 5.00277C30.9156 5.12099 31.0085 5.21627 31.089 5.29227C31.2103 5.40724 31.3008 5.47675 31.4082 5.53434C31.5158 5.59172 31.6494 5.64001 31.8559 5.69262C32.2712 5.79829 32.6235 5.98428 32.9126 6.22636C33.3467 6.59033 33.6362 7.07492 33.8246 7.59718C34.0134 8.1203 34.1035 8.685 34.1353 9.23021L33.8742 9.24537L33.8958 8.98445C33.9985 8.99312 34.0948 9.02321 34.1896 9.06587C34.3553 9.14144 34.5164 9.25814 34.6738 9.4069C34.9087 9.63057 35.1333 9.92959 35.3097 10.284C35.486 10.6383 35.6135 11.0488 35.6434 11.4918C35.6581 11.7164 35.6646 11.9123 35.6646 12.0849C35.6651 12.5526 35.6163 12.8496 35.5652 13.0536C35.5399 13.1547 35.515 13.2316 35.5003 13.2846C35.4847 13.3392 35.481 13.3641 35.4814 13.3784C35.4819 13.391 35.4823 13.4037 35.4962 13.4405C35.5098 13.4769 35.5379 13.5343 35.5867 13.6144C35.7092 13.8184 35.8694 13.9987 36.0245 14.2187C36.1013 14.3287 36.1761 14.4496 36.2369 14.5873C36.2984 14.7252 36.3454 14.8798 36.3685 15.053C36.3965 15.2581 36.4108 15.4941 36.4108 15.7366C36.4103 16.0754 36.3833 16.4236 36.3159 16.7135V16.714C36.2042 17.1806 35.9377 17.6058 35.6733 17.9625L35.6724 17.9633C35.6057 18.0512 35.531 18.1225 35.468 18.1892C35.4366 18.2219 35.4083 18.252 35.3879 18.2777C35.3671 18.3028 35.3539 18.3236 35.3511 18.3297L35.3515 18.3288C35.3377 18.358 35.3294 18.3825 35.3234 18.4107C35.3138 18.4533 35.3106 18.5077 35.305 18.5837C35.2987 18.6595 35.2889 18.7554 35.2563 18.8639C35.1781 19.1215 35.0646 19.3474 34.9252 19.5431C34.7162 19.8376 34.4521 20.0634 34.1704 20.2498C33.8885 20.4363 33.5875 20.5848 33.2932 20.7255C33.2261 20.7574 33.1763 20.7803 33.1414 20.7979C33.1155 20.8108 33.0981 20.8208 33.0847 20.8297C33.065 20.8429 33.0503 20.855 33.0204 20.8866C32.9912 20.9176 32.9503 20.968 32.8922 21.0432L32.8918 21.0436C32.7753 21.1945 32.6391 21.3736 32.4849 21.5267C32.3238 21.6858 32.1314 21.8406 31.9241 21.9768C31.7165 22.1126 31.4948 22.2297 31.2718 22.309H31.272C31.0509 22.3871 30.8409 22.3913 30.6573 22.3917C30.607 22.3917 30.5587 22.3913 30.5126 22.3913C30.3645 22.3913 30.2352 22.3969 30.1218 22.4272C30.0616 22.4432 29.9912 22.4738 29.9144 22.5171C29.7992 22.5822 29.6703 22.6749 29.5309 22.7715C29.3917 22.8681 29.2412 22.9692 29.0699 23.0463C28.8066 23.164 28.5327 23.2264 28.2616 23.2652C27.855 23.3232 27.4509 23.3314 27.085 23.3775C26.9025 23.4001 26.7295 23.4317 26.5708 23.48C26.4118 23.528 26.2672 23.5928 26.136 23.682C24.905 24.5158 23.6479 24.7992 22.63 24.7988C22.2004 24.7988 21.8128 24.7488 21.4833 24.6672C21.1537 24.5849 20.8831 24.4736 20.6791 24.337L20.8255 24.12L21.0078 24.3075C20.4585 24.8421 19.891 25.2204 19.3269 25.4646C18.7627 25.7084 18.2027 25.818 17.6711 25.818C16.6721 25.8176 15.78 25.433 15.1363 24.8549C14.8137 24.5652 14.5525 24.2263 14.3707 23.8589C14.1886 23.4916 14.0861 23.095 14.0861 22.6933C14.0853 22.2473 14.2148 21.7954 14.4932 21.3883L14.7091 21.536L14.4735 21.4223C14.4804 21.408 14.4839 21.3983 14.4841 21.3965L14.4845 21.3961L14.5742 21.4204H14.4822C14.4822 21.4035 14.4845 21.3965 14.4845 21.3961L14.5742 21.4204H14.4822H14.6636L14.4993 21.4959C14.485 21.4645 14.4817 21.4366 14.4822 21.4204H14.6636L14.4993 21.4959L14.6842 21.4108L14.546 21.5602C14.5268 21.5425 14.5099 21.5193 14.4993 21.4959L14.6842 21.4108L14.546 21.5602L14.6695 21.4269L14.6203 21.6027C14.6041 21.5981 14.5746 21.5867 14.546 21.5602L14.6695 21.4269L14.6203 21.6027L14.6519 21.4907L14.6383 21.6064L14.6203 21.6027L14.6519 21.4907L14.6383 21.6064L14.6448 21.5475L14.642 21.6068L14.6383 21.6064L14.6448 21.5475L14.642 21.6068L14.6424 21.5986V21.6068H14.642L14.6424 21.5986V21.6068C14.6396 21.6064 14.6125 21.6087 14.5742 21.6183C14.5006 21.6354 14.386 21.6739 14.247 21.7287C14.003 21.824 13.6821 21.9662 13.316 22.1258C12.7656 22.3651 12.1119 22.6427 11.4374 22.862C10.7625 23.0807 10.0672 23.2435 9.41872 23.2439C9.30873 23.2439 9.20046 23.2394 9.09328 23.2292C8.64897 23.1861 8.1436 23.1077 7.64863 22.9845C7.15322 22.8603 6.66755 22.6931 6.25983 22.4623C6.02079 22.3283 5.84367 22.17 5.71246 21.9864C5.58081 21.8032 5.49507 21.6064 5.40196 21.3831C5.35043 21.2588 5.30994 21.1852 5.28244 21.1491C5.26208 21.1218 5.25234 21.1144 5.24 21.1062C5.23026 21.1001 5.21661 21.0932 5.19215 21.0841C5.15534 21.0707 5.09449 21.0542 5.01221 21.0311C4.93058 21.0072 4.82838 20.9758 4.70648 20.9271C4.19505 20.7238 3.78906 20.3763 3.51602 19.9443C3.24299 19.5121 3.10073 18.9972 3.10073 18.4557V18.4516L3.30968 18.454L3.10073 18.457V18.4516L3.30968 18.454L3.10073 18.457L3.34519 18.4538L3.10203 18.4754L3.10073 18.457L3.34519 18.4538L3.10203 18.4754L3.10073 18.4516C3.1016 18.2112 3.12606 17.9536 3.12563 17.7195C3.1265 17.5331 3.10939 17.3646 3.06803 17.2468L3.0676 17.246C3.023 17.1139 2.93444 16.9667 2.83051 16.8066C2.72701 16.6464 2.60965 16.473 2.52391 16.2694V16.269C2.29655 15.7225 2.1543 15.1338 2.1543 14.5288C2.1543 14.2287 2.18959 13.9247 2.26711 13.6222L2.52066 13.6867L2.77399 13.7517C2.70795 14.0098 2.67764 14.2696 2.67764 14.5288C2.67764 15.0511 2.80106 15.5729 3.00719 16.0676L3.00676 16.0674C3.06479 16.2073 3.1633 16.3584 3.27005 16.523C3.3755 16.6873 3.48982 16.8653 3.56258 17.0771V17.0758C3.63425 17.2865 3.64854 17.506 3.6494 17.7195C3.64897 17.9867 3.62407 18.2487 3.62407 18.4525L3.36229 18.452L3.6232 18.4286C3.62407 18.441 3.62407 18.4492 3.62407 18.4538V18.4574L3.44327 18.4557H3.62407V18.4574L3.44327 18.4557H3.62407C3.62407 18.9061 3.74164 19.3218 3.95839 19.6641C4.17556 20.0065 4.48974 20.2769 4.90027 20.4408C5.02044 20.4887 5.11333 20.5157 5.19756 20.5393C5.26079 20.5573 5.32098 20.5733 5.3868 20.5982C5.4353 20.6166 5.4877 20.6417 5.53837 20.676C5.6148 20.7279 5.68106 20.7998 5.73454 20.8829C5.78867 20.9659 5.83479 21.0611 5.88503 21.182C5.9751 21.3998 6.0485 21.5581 6.13685 21.6804C6.22606 21.8023 6.32977 21.8995 6.51793 22.0067C6.86372 22.2031 7.31063 22.361 7.77486 22.4764C8.23974 22.5924 8.72216 22.6676 9.1433 22.708C9.23186 22.7163 9.32388 22.7204 9.41872 22.7204C9.87299 22.7208 10.3896 22.6242 10.913 22.4751C11.6989 22.251 12.5003 21.9101 13.159 21.6232C13.4887 21.4797 13.7824 21.3496 14.0264 21.253C14.1485 21.2043 14.2581 21.1642 14.3574 21.1348C14.407 21.12 14.454 21.1079 14.5006 21.0988C14.5467 21.0899 14.5922 21.0837 14.6424 21.0832C14.6742 21.0832 14.7082 21.0863 14.7463 21.0947C14.7749 21.1016 14.8063 21.1122 14.8381 21.1304C14.8864 21.1564 14.9364 21.2032 14.9659 21.2588C14.9955 21.3147 15.0055 21.3729 15.0055 21.4204C15.0051 21.4687 14.9968 21.5087 14.9862 21.5455C14.9752 21.5823 14.9613 21.6159 14.9449 21.6492C14.9403 21.6592 14.9315 21.6743 14.9254 21.6837C14.7063 22.0056 14.6097 22.3462 14.6093 22.6933C14.6093 23.0055 14.6889 23.3232 14.8394 23.6268C15.0644 24.0815 15.4481 24.5011 15.9387 24.804C16.4289 25.1071 17.0237 25.2944 17.6711 25.2944C18.131 25.294 18.6184 25.2005 19.1193 24.9839C19.6197 24.7672 20.1339 24.4275 20.6432 23.9323C20.732 23.8459 20.8688 23.8335 20.9719 23.9028C21.1022 23.9918 21.3248 24.0893 21.6093 24.1592C21.8943 24.2296 22.2416 24.2752 22.63 24.2752C23.5531 24.2752 24.7043 24.0193 25.8424 23.2485C26.0855 23.0831 26.3512 22.9871 26.6182 22.9265C27.0194 22.8362 27.4278 22.8219 27.8123 22.7884C28.1975 22.7559 28.5552 22.7044 28.856 22.5686C29.0123 22.4991 29.1851 22.3748 29.3687 22.2468C29.4607 22.183 29.556 22.1189 29.6578 22.0611C29.7595 22.0039 29.8678 21.9532 29.988 21.9212C30.1768 21.8718 30.3543 21.8681 30.5126 21.8677C30.5628 21.8677 30.6111 21.8681 30.6573 21.8681C30.8298 21.869 30.9736 21.8599 31.0964 21.8157H31.0968C31.2692 21.7549 31.4584 21.6564 31.637 21.5388C31.8159 21.4219 31.9837 21.2861 32.1171 21.154C32.2349 21.0384 32.3615 20.8747 32.4776 20.7242L32.4771 20.7247C32.5324 20.653 32.577 20.5971 32.6211 20.5476C32.6538 20.5112 32.6874 20.4776 32.7229 20.4477C32.776 20.4027 32.8333 20.3676 32.8881 20.3395C32.9433 20.3107 32.9977 20.2866 33.068 20.2531C33.4539 20.069 33.8218 19.8822 34.1154 19.6429C34.262 19.5232 34.3912 19.3915 34.4988 19.2402C34.6062 19.0884 34.6933 18.9167 34.755 18.7121C34.7771 18.6397 34.7808 18.5731 34.7886 18.4724C34.7927 18.4226 34.7981 18.3654 34.8115 18.3015C34.8254 18.2377 34.8475 18.1677 34.8821 18.0974L34.8825 18.0967C34.9124 18.0374 34.9473 17.9904 34.9823 17.9464C35.0354 17.8815 35.0919 17.8252 35.1413 17.7739C35.1904 17.7232 35.2329 17.6775 35.2543 17.6487L35.2539 17.6496C35.4988 17.3224 35.7259 16.9413 35.8064 16.5936V16.594C35.8604 16.3662 35.8879 16.0453 35.8874 15.7366C35.8874 15.5153 35.874 15.299 35.8502 15.1234C35.8335 15.0004 35.8017 14.8969 35.7586 14.7995C35.6945 14.6544 35.602 14.5219 35.4918 14.377C35.3818 14.2328 35.255 14.0769 35.1389 13.8851C35.0813 13.7898 35.0384 13.7084 35.0068 13.6265C34.9754 13.5456 34.9579 13.4602 34.9583 13.3784C34.9583 13.2864 34.9778 13.2095 34.9966 13.1424C35.0257 13.0406 35.0583 12.9458 35.0878 12.7871C35.1168 12.6297 35.1413 12.4099 35.1413 12.0849C35.1413 11.9257 35.1356 11.7408 35.1209 11.5269C35.085 10.9724 34.8557 10.4596 34.5785 10.0883C34.4406 9.90295 34.291 9.75377 34.157 9.65395C34.09 9.60393 34.027 9.56691 33.9738 9.54266C33.9203 9.51819 33.877 9.50801 33.8521 9.50628C33.7224 9.49524 33.6202 9.39044 33.6128 9.26052C33.5741 8.58237 33.4351 7.8884 33.1395 7.33756C32.9918 7.06149 32.8071 6.82093 32.5765 6.62801C32.3455 6.43487 32.0692 6.2872 31.7267 6.19972C31.5753 6.16097 31.4467 6.12177 31.3298 6.07414C31.154 6.00355 31.0054 5.91153 30.8673 5.79612C30.7283 5.68006 30.5966 5.54387 30.4251 5.36632C30.2389 5.17296 30.0601 4.96683 29.8747 4.78386C29.69 4.60068 29.5004 4.4424 29.3025 4.33934C29.1123 4.2393 28.8205 4.12909 28.5004 4.0479C28.1796 3.96605 27.8275 3.91192 27.5122 3.91235C27.3381 3.91235 27.1751 3.92881 27.037 3.96323C26.8979 3.99701 26.7851 4.04811 26.7024 4.11155C26.6212 4.17413 26.5099 4.18322 26.4196 4.13451C26.3293 4.08579 26.2752 3.98813 26.2826 3.88593C26.283 3.87533 26.2834 3.86385 26.2834 3.85107C26.283 3.71705 26.2414 3.59341 26.1572 3.46956C26.0321 3.28464 25.8038 3.11034 25.5228 2.98909C25.2422 2.86675 24.9124 2.79638 24.598 2.79681C24.3642 2.79638 24.1401 2.83514 23.9495 2.91287C23.7583 2.9906 23.6022 3.10428 23.4868 3.26018C23.4231 3.34635 23.3123 3.38533 23.2088 3.3574C23.1051 3.32968 23.0286 3.24091 23.0163 3.13416C23.0052 3.0443 22.9713 2.9735 22.9054 2.90031C22.8082 2.79097 22.6276 2.68963 22.3998 2.62381C22.1725 2.55712 21.9031 2.52312 21.6416 2.52356C21.3428 2.52312 21.0524 2.56773 20.8502 2.64005C20.7491 2.67578 20.6713 2.71821 20.6274 2.75416C20.6053 2.77191 20.5912 2.78772 20.5843 2.7979C20.5774 2.80872 20.5763 2.81305 20.5758 2.81522C20.557 2.90269 20.4949 2.97501 20.4111 3.00619C20.3277 3.03716 20.2333 3.02373 20.1621 2.96982C19.9806 2.83189 19.7214 2.71951 19.4153 2.64503C19.1091 2.57054 18.7575 2.53309 18.3933 2.53309C17.8442 2.53265 17.2673 2.6184 16.7734 2.77668C16.5266 2.85571 16.3005 2.95249 16.11 3.06292C15.9186 3.17335 15.7638 3.29785 15.6542 3.42668C15.6077 3.48147 15.5397 3.51481 15.4678 3.51828C15.3959 3.52196 15.3251 3.49532 15.2731 3.44531C15.2238 3.39745 15.1538 3.35133 15.064 3.31084C14.9291 3.25 14.7507 3.2041 14.5497 3.17552C14.349 3.14693 14.1249 3.13459 13.8971 3.13459C13.3367 3.13459 12.7539 3.20734 12.3925 3.26169C11.5593 3.38641 10.7833 3.81297 10.1317 4.36965L10.1322 4.36922C9.54344 4.87221 8.91422 5.40183 8.21354 5.78724C7.43881 6.2125 6.73078 6.61437 6.1271 7.22259C5.51542 7.8386 5.03928 8.45202 4.65213 9.2471C4.47545 9.60891 4.28382 9.93608 4.12359 10.2596C3.9625 10.5835 3.83215 10.9016 3.76698 11.2502V11.2506C3.72779 11.4574 3.70159 11.6735 3.65373 11.8972C3.60567 12.1204 3.53486 12.3532 3.4017 12.5801V12.5796C3.26507 12.8128 3.13148 12.9988 3.02386 13.1779C2.91603 13.3576 2.83094 13.5289 2.77399 13.7517L2.52066 13.6867Z" fill="#1A4ADA"/>
<path d="M14.5022 21.377C14.5583 21.3053 14.6269 21.2326 14.7107 21.1533C14.8677 21.0043 15.0766 20.8331 15.333 20.6412C16.229 19.9717 17.7065 19.0556 19.3915 18.2255C21.0765 17.3968 22.9644 16.6554 24.6856 16.349C25.6818 16.1724 26.4202 15.8658 26.9712 15.5111C27.7966 14.9787 28.2078 14.3371 28.42 13.8265C28.5254 13.5715 28.5802 13.3497 28.6079 13.1941C28.6218 13.1163 28.6291 13.0553 28.6333 13.0148C28.635 12.9949 28.6361 12.9801 28.6365 12.9706L28.6369 12.9613V12.96L28.7556 12.9637L28.6369 12.9613V12.96L28.7556 12.9637L28.6369 12.9613C28.6402 12.8164 28.7601 12.7019 28.9048 12.7051C29.049 12.7086 29.1635 12.8283 29.1603 12.9728C29.159 13.0027 29.1391 13.778 28.5729 14.656C28.2899 15.0945 27.8694 15.5553 27.2544 15.9513C26.6393 16.3475 25.8314 16.6775 24.7767 16.8648C22.7732 17.2195 20.4564 18.2185 18.567 19.2405C17.6219 19.7509 16.7818 20.2671 16.1391 20.7084C15.8178 20.9288 15.546 21.1304 15.3362 21.3016C15.2312 21.3872 15.142 21.4653 15.071 21.5329C14.9997 21.6002 14.9467 21.658 14.9155 21.6985C14.8267 21.8126 14.6626 21.833 14.5485 21.7442C14.4344 21.6554 14.4136 21.4911 14.5022 21.377Z" fill="#1A4ADA"/>
<path d="M31.8959 11.8967C31.9017 11.9058 32.1291 12.255 32.3575 12.792C32.5853 13.3292 32.8174 14.0544 32.8183 14.8245C32.8183 15.1158 32.7843 15.4135 32.7024 15.7077C32.5799 16.1488 32.346 16.5819 31.9667 16.9614C31.5878 17.3408 31.0666 17.666 30.3752 17.9109C29.363 18.2705 28.763 18.5776 28.3949 18.8348C28.1186 19.0282 27.9731 19.1895 27.8644 19.3391C27.783 19.4519 27.7226 19.5628 27.6472 19.6847C27.5913 19.7754 27.526 19.8724 27.4387 19.9677C27.3079 20.1112 27.1297 20.245 26.8788 20.3635C26.6274 20.4826 26.3006 20.5913 25.8503 20.6989C24.4701 21.0273 23.3533 21.3725 22.5827 21.6349C22.1975 21.7663 21.8987 21.8768 21.6971 21.9541C21.5962 21.9928 21.5193 22.0231 21.4682 22.0439C21.4429 22.0541 21.4236 22.0619 21.4111 22.0673L21.397 22.0734L21.3931 22.0751C21.2597 22.1312 21.1064 22.0688 21.0501 21.9361C20.9936 21.8027 21.0562 21.6494 21.1889 21.5929C21.1993 21.5884 22.9322 20.8559 25.7288 20.1894C26.0672 20.1088 26.3223 20.0294 26.5146 19.9516C26.6826 19.8839 26.8023 19.818 26.8918 19.7546C26.9699 19.6994 27.0256 19.6461 27.0741 19.5903C27.1583 19.4924 27.2222 19.375 27.3153 19.2217C27.3852 19.1076 27.4718 18.9775 27.595 18.8402C27.7797 18.6337 28.0435 18.4147 28.4523 18.1813C28.8615 17.9468 29.4173 17.6959 30.2003 17.4176C31.0449 17.1175 31.5592 16.7103 31.8699 16.2662C32.0256 16.0431 32.1306 15.8089 32.1984 15.5672C32.2659 15.3251 32.2949 15.0753 32.2949 14.8245C32.2958 14.162 32.0881 13.4942 31.8759 12.9973C31.7701 12.7485 31.6642 12.5424 31.5852 12.3997C31.5455 12.3282 31.5128 12.273 31.4903 12.2358C31.4793 12.2174 31.4708 12.2031 31.465 12.194L31.4589 12.1842L31.4574 12.1821C31.3784 12.061 31.4128 11.8986 31.5338 11.8198C31.6551 11.7408 31.8171 11.7752 31.8959 11.8967Z" fill="#1A4ADA"/>
<path d="M14.5158 4.14033L14.5137 4.1412C14.4617 4.16371 13.4354 4.62448 12.4383 5.39986C11.9394 5.78679 11.4498 6.25253 11.0908 6.77198C10.731 7.29272 10.5043 7.8598 10.5043 8.46845C10.5043 8.48729 10.5045 8.50721 10.5045 8.52886V8.52692C10.5058 8.56741 10.5062 8.6079 10.5062 8.64795C10.5067 9.35512 10.3549 9.94104 10.0998 10.4245C9.90905 10.7872 9.66156 11.0908 9.38528 11.3487C8.97041 11.736 8.49168 12.0227 8.02571 12.268C7.5591 12.5131 7.10332 12.7184 6.73457 12.9293C6.54013 13.0402 6.3431 13.232 6.161 13.5011C5.88753 13.9039 5.6513 14.4766 5.48782 15.1649C5.32348 15.853 5.23016 16.6577 5.23016 17.527C5.23016 18.567 5.36354 19.7003 5.66516 20.8442C5.70196 20.984 5.6186 21.1272 5.47873 21.164C5.33929 21.2008 5.19595 21.1174 5.15914 20.9775C4.84561 19.7882 4.70703 18.6116 4.70703 17.527C4.70746 16.3173 4.87874 15.223 5.17949 14.3469C5.32997 13.9089 5.51315 13.525 5.72773 13.2075C5.94274 12.891 6.1898 12.6387 6.47496 12.475C6.83223 12.2711 7.23302 12.087 7.63229 11.8824C8.23206 11.5765 8.82404 11.2257 9.25731 10.7301C9.47492 10.4821 9.65398 10.1983 9.78108 9.85898C9.90775 9.51947 9.98289 9.12323 9.98289 8.64795C9.98289 8.61266 9.98245 8.57628 9.9818 8.53947V8.53752C9.98137 8.51587 9.98094 8.49292 9.98094 8.46845C9.98094 7.7143 10.2674 7.03332 10.6797 6.44654C11.2994 5.5655 12.2027 4.87803 12.9517 4.40124C13.7011 3.92554 14.2974 3.66462 14.306 3.66051C14.4381 3.60291 14.5927 3.66311 14.6503 3.79562C14.7083 3.92814 14.6477 4.0823 14.5154 4.14033" fill="#1A4ADA"/>
<path d="M9.27141 5.07956C9.22399 5.11442 9.14345 5.17289 9.03453 5.25625C8.6541 5.54661 7.93697 6.13642 7.3229 6.92154C7.01587 7.31389 6.7346 7.7543 6.53237 8.22741C6.32948 8.70052 6.20498 9.20567 6.20498 9.73377C6.20498 9.76062 6.2052 9.78877 6.20563 9.81757C6.20888 9.96177 6.09412 10.0817 5.9497 10.0845C5.80506 10.0874 5.68575 9.97282 5.68294 9.82861C5.68207 9.797 5.68164 9.7656 5.68164 9.73377C5.68164 9.03505 5.87002 8.38331 6.15258 7.7989C6.57697 6.92198 7.21096 6.19164 7.77176 5.65097C8.05238 5.38053 8.31502 5.15816 8.52527 4.99014C8.73486 4.82233 8.89444 4.70714 8.95983 4.65885C9.07546 4.57289 9.23937 4.59715 9.32576 4.7132C9.4115 4.82969 9.38747 4.99339 9.27098 5.07956" fill="#1A4ADA"/>
<path d="M7.79036 8.52202C7.79036 8.5257 7.79122 8.54259 7.79122 8.57074C7.79122 8.68117 7.78213 8.9724 7.69963 9.35543C7.63706 9.64297 7.53334 9.98249 7.3586 10.335C7.09704 10.8637 6.67308 11.4232 6.00186 11.8654C5.33106 12.3082 4.41819 12.631 3.19309 12.7103C3.04867 12.7198 2.92395 12.6105 2.91464 12.466C2.90511 12.3218 3.01467 12.1975 3.15866 12.188C4.18304 12.1209 4.94218 11.8779 5.50969 11.5538C5.93517 11.3104 6.25497 11.0209 6.49813 10.7174C6.86276 10.2635 7.05612 9.77549 7.15767 9.3747C7.259 8.97434 7.26788 8.66276 7.26788 8.57074C7.26788 8.56056 7.26788 8.5532 7.26745 8.54866V8.54411L7.41317 8.53848L7.26745 8.54454V8.54411L7.41317 8.53848L7.26745 8.54454C7.26138 8.40012 7.37333 8.27822 7.51775 8.27172C7.66196 8.26566 7.78429 8.3776 7.79036 8.52202Z" fill="#1A4ADA"/>
<path d="M19.9857 2.28129C19.9991 2.28822 20.7112 2.61214 21.4362 3.24526C21.798 3.56226 22.1641 3.9572 22.443 4.43442C22.7217 4.91142 22.9122 5.47417 22.9122 6.10751C22.9122 6.56698 22.8122 7.06087 22.5831 7.58075C22.3542 8.10041 21.9978 8.64649 21.4851 9.21898L21.2905 9.04446L21.5068 9.1917L21.4806 9.17394L21.5068 9.1917L21.4806 9.17394L21.5068 9.1917C21.5022 9.19819 21.3359 9.44676 21.1737 9.81529C21.0109 10.1834 20.8552 10.6703 20.8561 11.1428C20.8561 11.3355 20.881 11.5252 20.9386 11.7069C21.0261 11.9788 21.1835 12.2347 21.4606 12.4682C21.7382 12.7009 22.141 12.9099 22.7165 13.0601C22.8564 13.0965 22.9402 13.2396 22.9033 13.3795C22.867 13.5194 22.7243 13.6032 22.5844 13.5668C22.1628 13.4568 21.811 13.3143 21.5187 13.1444C21.0804 12.8904 20.7766 12.5701 20.5902 12.2209C20.4027 11.8716 20.3328 11.499 20.3328 11.1428C20.3341 10.5493 20.5211 9.99566 20.7035 9.58469C20.8866 9.17394 21.0681 8.9061 21.0739 8.89766L21.0956 8.86972C21.5784 8.33079 21.9017 7.82975 22.1042 7.36964C22.3064 6.90952 22.3887 6.49119 22.3891 6.10751C22.3887 5.57962 22.2323 5.11258 21.9913 4.6988C21.6302 4.07867 21.0726 3.58716 20.6034 3.25587C20.3691 3.09023 20.1578 2.96421 20.0065 2.88085C19.9305 2.83863 19.87 2.80767 19.8287 2.7871C19.8083 2.77649 19.7923 2.76912 19.7821 2.76436L19.7711 2.75895L19.7685 2.75765C19.6368 2.69767 19.5788 2.54264 19.639 2.41142C19.6988 2.27978 19.854 2.22153 19.9852 2.28129" fill="#1A4ADA"/>
<path d="M23.5248 3.1882L23.4014 3.14685L23.5261 3.18452L23.5248 3.1882L23.4014 3.14685L23.5261 3.18452C23.5261 3.18452 23.522 3.19795 23.5179 3.22328C23.5138 3.24905 23.5097 3.28586 23.5097 3.33133C23.5105 3.45691 23.5383 3.64421 23.687 3.86506C23.8366 4.08548 24.1146 4.34596 24.6425 4.58804C24.7737 4.64845 24.8313 4.80392 24.7712 4.93513C24.7112 5.06656 24.5557 5.12416 24.4243 5.06396C23.8314 4.79244 23.4672 4.4735 23.2542 4.1591C23.0405 3.84449 22.9857 3.54136 22.9863 3.33133C22.9863 3.15529 23.0221 3.04248 23.0286 3.02256C23.0742 2.8855 23.2223 2.81145 23.3596 2.85735C23.4967 2.90261 23.5705 3.05114 23.5248 3.1882Z" fill="#1A4ADA"/>
<path d="M26.7826 3.80177C26.7863 3.81064 26.8356 3.928 26.8852 4.11529C26.9346 4.30302 26.9842 4.56069 26.9846 4.85191C26.9842 5.08381 26.9526 5.3378 26.8595 5.59178C26.79 5.78146 26.6849 5.97092 26.536 6.14457C26.3125 6.40548 25.9912 6.6285 25.5581 6.7818C25.1244 6.93554 24.5788 7.02301 23.8887 7.02344C23.7439 7.02344 23.627 6.90609 23.627 6.76188C23.627 6.61703 23.7439 6.5001 23.8887 6.5001C24.4625 6.5001 24.9118 6.43471 25.2583 6.32948C25.5177 6.25088 25.7197 6.15085 25.8771 6.03955C26.1133 5.87218 26.2532 5.68164 26.3411 5.47919C26.4286 5.27652 26.4613 5.05934 26.4613 4.85191C26.4613 4.62131 26.4203 4.405 26.3794 4.24911C26.3586 4.17094 26.3383 4.10836 26.3236 4.06636C26.3158 4.04492 26.3099 4.02912 26.3058 4.01894L26.3019 4.00811L26.301 4.00616L26.3673 3.97867L26.301 4.0066V4.00616L26.3673 3.97867L26.301 4.0066C26.2445 3.87365 26.3062 3.72035 26.4396 3.66341C26.5723 3.60711 26.7256 3.66882 26.7826 3.80177Z" fill="#1A4ADA"/>
<path d="M33.7309 9.46619L33.7463 9.44172L33.7309 9.46619L33.7463 9.44172L33.7309 9.46619C33.7227 9.46099 33.4392 9.28106 33.0036 9.10502C32.5677 8.92834 31.9799 8.75707 31.368 8.75793C30.9812 8.75793 30.5859 8.82462 30.2033 8.99676C29.8207 9.16933 29.4474 9.44649 29.1035 9.88495C29.0299 9.97914 28.9015 10.0114 28.7924 9.96311L28.8231 9.89318L28.7924 9.96355V9.96311L28.8231 9.89318L28.7924 9.96355C28.7863 9.95987 27.9655 9.60736 26.8796 9.60845C26.4509 9.60845 25.9808 9.66258 25.5003 9.81176C25.0201 9.96138 24.529 10.2052 24.0529 10.5889C23.9405 10.6796 23.7757 10.6621 23.685 10.5495C23.594 10.4371 23.612 10.2723 23.7246 10.1816C24.2536 9.7546 24.807 9.4794 25.3455 9.31202C25.8838 9.14487 26.4071 9.0851 26.8796 9.0851C28.0963 9.08597 28.9825 9.47593 29.0026 9.48373L28.8976 9.72342L28.6915 9.56233C29.0827 9.06215 29.5284 8.72589 29.9887 8.51954C30.449 8.31211 30.921 8.23394 31.368 8.23438C32.0875 8.23481 32.7431 8.43315 33.2223 8.62867C33.7014 8.82506 34.0046 9.01993 34.0141 9.02621C34.136 9.10438 34.1707 9.26655 34.0923 9.38802C34.0141 9.50949 33.8521 9.54435 33.7309 9.46619Z" fill="#1A4ADA"/>
<path d="M17.886 19.4063L17.9538 19.3351L17.8863 19.4063H17.886L17.9538 19.3351L17.8863 19.4063C17.8839 19.4039 17.4885 19.03 16.8586 18.6623C16.5438 18.4783 16.1705 18.296 15.7598 18.1602C15.349 18.0244 14.9008 17.9357 14.4344 17.9357C13.9316 17.9361 13.4074 18.0374 12.8728 18.2983C11.4572 18.9884 10.0034 19.3834 8.72269 19.3842C8.11057 19.3842 7.53721 19.2935 7.0286 19.0947C6.51998 18.8964 6.07567 18.5868 5.73789 18.1593C5.64846 18.0461 5.66773 17.8818 5.78098 17.7917C5.89422 17.702 6.05856 17.7213 6.14842 17.8346C6.42427 18.1832 6.78414 18.4367 7.21871 18.6071C7.65327 18.7769 8.16254 18.8607 8.72269 18.8607C9.89517 18.8615 11.285 18.4915 12.6431 17.8276C13.2517 17.5303 13.8608 17.4121 14.4344 17.4121C14.9716 17.4121 15.4781 17.5147 15.9343 17.6665C16.6191 17.8947 17.1927 18.2325 17.5978 18.5136C18.003 18.7948 18.2401 19.0202 18.2474 19.0272C18.352 19.127 18.3557 19.2931 18.2559 19.3972C18.1563 19.502 17.9906 19.5061 17.886 19.4063Z" fill="#1A4ADA"/>
<path d="M8.99025 22.7398L9.03615 22.8221L8.98982 22.7402L8.99025 22.7398L9.03615 22.8221L8.98982 22.7402C8.99307 22.7385 9.25679 22.5884 9.5071 22.3243C9.63246 22.1922 9.75437 22.033 9.84271 21.8527C9.93127 21.6723 9.98778 21.4727 9.98778 21.249C9.98778 21.0756 9.95422 20.8863 9.86848 20.6748C9.81413 20.5412 9.87865 20.3881 10.0123 20.3338C10.1461 20.2794 10.2989 20.3437 10.3533 20.4777C10.4628 20.7469 10.5111 21.0065 10.5111 21.249C10.5116 21.5677 10.4278 21.8531 10.3067 22.0952C10.1244 22.4592 9.86068 22.7292 9.64437 22.9124C9.42698 23.0955 9.25484 23.1917 9.24424 23.1977C9.11778 23.2677 8.95842 23.222 8.88848 23.0955C8.81811 22.9693 8.86402 22.8097 8.99025 22.7398Z" fill="#1A4ADA"/>
<path d="M15.4072 14.8865V14.8848C15.4068 14.8583 15.4023 14.5548 15.3377 14.1189C15.2416 13.4646 15.0058 12.514 14.4697 11.7521C14.2016 11.3701 13.8619 11.0349 13.425 10.7931C12.9878 10.5519 12.4519 10.4009 11.7755 10.4005C11.2268 10.4005 10.5859 10.5012 9.8393 10.7396C9.70202 10.7838 9.55435 10.7078 9.51061 10.5703C9.46644 10.4323 9.54244 10.2851 9.68037 10.2409C10.4685 9.98912 11.1625 9.87696 11.7755 9.87696C12.7979 9.87544 13.5941 10.1953 14.1845 10.6775C14.6275 11.0382 14.9558 11.4851 15.2002 11.9472C15.5662 12.6405 15.7461 13.3699 15.8377 13.9284C15.9289 14.4866 15.9304 14.8746 15.9304 14.8848C15.9308 15.0292 15.8143 15.147 15.6697 15.1474C15.5253 15.1478 15.4077 15.0313 15.4072 14.8869" fill="#1A4ADA"/>
<path d="M11.5483 13.3999C11.5394 13.4254 11.4225 13.7528 11.0659 14.1313C10.7099 14.5091 10.1114 14.9329 9.17083 15.1418C8.97206 15.186 8.81725 15.2574 8.69209 15.3471C8.50567 15.4815 8.37965 15.6604 8.2952 15.8795C8.21119 16.0984 8.1733 16.3561 8.17373 16.6239C8.1733 16.9621 8.23328 17.3142 8.31967 17.616C8.36254 17.767 8.41213 17.9051 8.46236 18.0225C8.51216 18.1394 8.56413 18.2355 8.607 18.2985C8.68798 18.4185 8.65658 18.5807 8.53663 18.6621C8.41689 18.7426 8.25428 18.7117 8.1733 18.5917C8.10531 18.4904 8.04208 18.3689 7.98146 18.229C7.80239 17.8094 7.65126 17.2222 7.65039 16.6239C7.65082 16.2039 7.72574 15.7745 7.94486 15.4055C8.05421 15.2219 8.20101 15.0554 8.38701 14.9218C8.573 14.788 8.79754 14.6886 9.05672 14.6306C9.89792 14.4424 10.3931 14.08 10.6854 13.7716C10.8314 13.617 10.9253 13.4756 10.9821 13.3754C11.0104 13.3252 11.0295 13.2855 11.0405 13.2598C11.0464 13.247 11.0501 13.2377 11.052 13.2327L11.0542 13.2277L11.2144 13.2847L11.0533 13.229L11.0542 13.2277L11.2144 13.2847L11.0533 13.229C11.1007 13.0924 11.2495 13.0201 11.3861 13.0671C11.5225 13.1145 11.5953 13.2635 11.5483 13.3999Z" fill="#1A4ADA"/>
<path d="M13.7432 14.928C13.738 14.9538 13.6594 15.4208 13.2751 15.9011C13.083 16.1403 12.8124 16.3807 12.443 16.5587C12.0738 16.7366 11.6076 16.851 11.0317 16.8508C10.6209 16.8508 10.1536 16.7929 9.62056 16.6609C9.48025 16.6262 9.39494 16.4846 9.42959 16.3443C9.46423 16.2038 9.60627 16.1183 9.74636 16.1529C10.2444 16.2765 10.6698 16.3272 11.0317 16.3272C11.5394 16.3272 11.922 16.2282 12.2161 16.0866C12.6554 15.8749 12.9053 15.5624 13.0512 15.2978C13.1235 15.1662 13.1685 15.0471 13.195 14.9637C13.2082 14.9215 13.2164 14.8888 13.2216 14.8676C13.224 14.857 13.2257 14.8492 13.2266 14.8447L13.2274 14.8405V14.8401L13.3892 14.8689L13.227 14.8414L13.2274 14.8401L13.3892 14.8689L13.227 14.8414C13.251 14.6991 13.3859 14.603 13.5286 14.6266C13.6709 14.6509 13.767 14.7858 13.7432 14.928Z" fill="#1A4ADA"/>
<path d="M18.3622 14.6386C18.3659 14.5728 18.3677 14.507 18.3677 14.442C18.3679 13.7071 18.1349 13.0051 17.7183 12.498C17.5102 12.244 17.2577 12.0377 16.9624 11.8937C16.6668 11.7502 16.3288 11.6683 15.943 11.6679C15.5992 11.6679 15.217 11.7337 14.7976 11.8846C14.6618 11.9338 14.5118 11.8634 14.4626 11.7272C14.4141 11.5914 14.4843 11.4414 14.6205 11.3922C15.0895 11.2233 15.5316 11.1445 15.943 11.1445C16.4038 11.1441 16.8243 11.2441 17.1915 11.4234C17.7425 11.6917 18.1697 12.1341 18.4558 12.6632C18.742 13.1926 18.8908 13.8089 18.8908 14.442C18.8908 14.5171 18.8888 14.5929 18.8847 14.668C18.8765 14.8125 18.7531 14.9229 18.6086 14.9147C18.4644 14.9064 18.354 14.783 18.3622 14.6386Z" fill="#1A4ADA"/>
<path d="M14.646 10.1619C14.6452 10.1398 14.5737 9.47204 14.2106 8.83979C14.0296 8.5228 13.7788 8.21598 13.4326 7.98906C13.0855 7.76214 12.6412 7.60841 12.0432 7.60755C12.0304 7.60755 12.0187 7.60755 12.0072 7.60798C11.8624 7.60949 11.7439 7.49387 11.7422 7.34945C11.7403 7.20459 11.8559 7.08615 12.0003 7.08442C12.0155 7.08399 12.0293 7.08399 12.0432 7.08399C12.7434 7.08312 13.3073 7.27388 13.7401 7.56446C14.0651 7.7825 14.3165 8.05337 14.5098 8.3329C14.7998 8.7534 14.9615 9.19424 15.0531 9.53159C15.1447 9.86915 15.1659 10.1043 15.1672 10.1158C15.18 10.2595 15.0737 10.3869 14.9297 10.3994C14.7859 10.4122 14.6586 10.3059 14.646 10.1619Z" fill="#1A4ADA"/>
<path d="M19.5145 5.12384L19.5162 5.11562L19.5145 5.12384L19.5162 5.11562L19.5145 5.12384C19.5026 5.12146 19.1126 5.03918 18.5468 5.03918C17.8998 5.03875 17.0275 5.14766 16.2196 5.58764C15.8149 5.80806 15.4252 6.1099 15.0798 6.52693C14.7349 6.94417 14.4335 7.47747 14.212 8.16408C14.1678 8.302 14.0201 8.37714 13.8829 8.33297C13.7451 8.28879 13.6694 8.14112 13.714 8.00341C13.9537 7.25987 14.2867 6.66442 14.6766 6.19326C15.2613 5.48609 15.971 5.06365 16.6598 4.82201C17.349 4.58037 18.0191 4.51562 18.5468 4.51562C19.183 4.51562 19.6134 4.61025 19.6266 4.61263C19.768 4.64381 19.857 4.78368 19.826 4.92464C19.7949 5.06582 19.6556 5.15524 19.514 5.12384" fill="#1A4ADA"/>
<path d="M17.4571 5.84234C17.4654 5.8497 17.7696 6.10455 18.0799 6.49711C18.2351 6.69372 18.3921 6.92518 18.5136 7.18242C18.6346 7.43965 18.7212 7.72481 18.7216 8.02708C18.7216 8.23105 18.6803 8.44259 18.5837 8.64548C18.4698 8.88669 18.4118 9.16102 18.412 9.43146C18.4118 9.73525 18.4852 10.0325 18.6205 10.2698C18.7571 10.5078 18.9486 10.6845 19.1991 10.7778C19.3348 10.8276 19.4043 10.9781 19.3543 11.1139C19.3041 11.2492 19.1536 11.3187 19.0183 11.2689C18.6394 11.1295 18.3516 10.8562 18.166 10.5286C17.9796 10.2008 17.8889 9.81796 17.8889 9.43146C17.8889 9.0874 17.9608 8.73902 18.1112 8.42137C18.1721 8.29124 18.1979 8.16241 18.1983 8.02708C18.1987 7.82788 18.139 7.61438 18.04 7.40587C17.8934 7.09299 17.6611 6.79613 17.4662 6.58307C17.3688 6.47633 17.2809 6.38993 17.2181 6.33147C17.1865 6.30202 17.1616 6.27907 17.1449 6.26435L17.1261 6.24811L17.1215 6.24443L17.1206 6.24356L17.1562 6.20134L17.1206 6.24356L17.1562 6.20134L17.1206 6.24356C17.0102 6.15067 16.9957 5.9859 17.0884 5.87504C17.1813 5.76418 17.3463 5.74945 17.4571 5.84234Z" fill="#1A4ADA"/>
<path d="M24.9179 12.5882L24.8032 12.4749L24.9188 12.5873L24.9179 12.5882L24.8032 12.4749L24.9188 12.5873L24.9175 12.5886C24.9008 12.6066 24.7378 12.7841 24.5804 13.105C24.4234 13.4266 24.2712 13.8895 24.2712 14.4902C24.2712 15.0354 24.3963 15.6966 24.7692 16.475C24.8318 16.6054 24.777 16.7617 24.6466 16.8243C24.5161 16.8869 24.3599 16.8317 24.2974 16.7011C23.8936 15.8603 23.7476 15.1163 23.748 14.4902C23.7476 13.7663 23.9418 13.2025 24.138 12.8205C24.3342 12.4377 24.5317 12.2348 24.5455 12.2205C24.6468 12.1175 24.8125 12.1166 24.9156 12.2179C25.0186 12.3195 25.0193 12.4851 24.9179 12.5882Z" fill="#1A4ADA"/>
</svg>
