<svg width="22" height="23" viewBox="0 0 22 23" fill="none" xmlns="http://www.w3.org/2000/svg">
<path fill-rule="evenodd" clip-rule="evenodd" d="M4.59961 11.2352C4.59961 10.5217 4.71811 9.83771 4.92961 9.19613L1.22761 6.36914C0.506109 7.83406 0.0996094 9.48472 0.0996094 11.2352C0.0996094 12.9842 0.505609 14.6339 1.22611 16.0978L4.92611 13.2653C4.71661 12.6268 4.59961 11.9452 4.59961 11.2352Z" fill="#FBBC05"/>
<path fill-rule="evenodd" clip-rule="evenodd" d="M11.1005 4.74362C12.6505 4.74362 14.0505 5.29284 15.1505 6.19156L18.3505 2.9961C16.4005 1.29851 13.9005 0.25 11.1005 0.25C6.75352 0.25 3.01752 2.73597 1.22852 6.36831L4.93052 9.19529C5.78352 6.60597 8.21501 4.74362 11.1005 4.74362Z" fill="#EA4335"/>
<path fill-rule="evenodd" clip-rule="evenodd" d="M11.1005 17.7251C8.21501 17.7251 5.78352 15.8628 4.93052 13.2734L1.22852 16.0999C3.01752 19.7328 6.75352 22.2187 11.1005 22.2187C13.7835 22.2187 16.345 21.2661 18.2675 19.4811L14.7535 16.7645C13.762 17.3891 12.5135 17.7251 11.1005 17.7251Z" fill="#34A853"/>
<path fill-rule="evenodd" clip-rule="evenodd" d="M21.5996 11.2335C21.5996 10.5844 21.4996 9.88541 21.3496 9.23633H11.0996V13.4803H16.9996C16.7046 14.9272 15.9016 16.0397 14.7526 16.7636L18.2666 19.4803C20.2861 17.6059 21.5996 14.8139 21.5996 11.2335Z" fill="#4285F4"/>
</svg>
