<svg width="23" height="19" viewBox="0 0 23 19" fill="none" xmlns="http://www.w3.org/2000/svg">
<path d="M22.5 2.4076C21.6906 2.76693 20.8207 3.00893 19.9077 3.11802C20.8399 2.55977 21.5558 1.67518 21.8923 0.621016C21.0205 1.13802 20.0543 1.51385 19.0258 1.71643C18.2036 0.839182 17.0293 0.291016 15.7313 0.291016C12.8172 0.291016 10.6759 3.00985 11.3341 5.83227C7.584 5.64435 4.25833 3.84768 2.03175 1.11693C0.84925 3.14552 1.4185 5.79926 3.42783 7.1431C2.689 7.11926 1.99233 6.91668 1.38458 6.57843C1.33508 8.66935 2.83383 10.6255 5.0045 11.0609C4.36925 11.2333 3.6735 11.2736 2.96583 11.1379C3.53967 12.9309 5.20617 14.2353 7.1825 14.272C5.285 15.7598 2.89433 16.4244 0.5 16.142C2.49742 17.4226 4.87067 18.1697 7.419 18.1697C15.7992 18.1697 20.5338 11.0921 20.2477 4.74418C21.1296 4.1071 21.895 3.31235 22.5 2.4076Z" fill="#009EF0"/>
</svg>
