<svg width="25" height="20" viewBox="0 0 25 20" fill="none" xmlns="http://www.w3.org/2000/svg">
<path d="M23.7 0.960938H1.30004C0.846737 0.960938 0.5 1.30766 0.5 1.76098V18.8276C0.5 19.2543 0.846723 19.6276 1.30004 19.6276H23.7C24.1533 19.6276 24.5 19.2543 24.5 18.8276V1.76098C24.5 1.30767 24.1533 0.960938 23.7 0.960938ZM6.36669 9.41424L6.47328 9.44084L6.55326 9.52082C7.78002 10.5074 8.74002 10.5342 8.74002 10.5342C8.76661 10.5342 9.72663 10.5076 10.9533 9.52082L11.0333 9.44084L11.1399 9.41424C11.1933 9.38764 12.6866 9.01431 13.7799 10.6142C13.8065 10.6408 14.7399 11.9209 14.6334 14.5876C14.6068 15.1208 14.4734 15.6009 14.2334 16.0009C13.8335 16.6675 13.2201 17.0409 12.4468 17.0674H5.06015C4.28692 17.0408 3.67344 16.6675 3.27349 16.0009C3.03354 15.601 2.90017 15.1209 2.87357 14.5876C2.76699 11.9209 3.70019 10.6409 3.727 10.5876C4.81999 9.01429 6.31327 9.38762 6.3667 9.41419L6.36669 9.41424ZM6.26011 6.00092C6.26011 4.64097 7.3801 3.52102 8.74 3.52102C10.0999 3.52102 11.2199 4.64102 11.2199 6.00092C11.2199 7.38763 10.0999 8.48081 8.74 8.48081C7.38005 8.481 6.26011 7.38763 6.26011 6.00092ZM16.2601 8.42762H21.5934C21.8867 8.42762 22.1267 8.66758 22.1267 8.96091C22.1267 9.25423 21.8867 9.49419 21.5934 9.49419H16.2601C15.9667 9.49419 15.7268 9.25423 15.7268 8.96091C15.7268 8.66758 15.9667 8.42762 16.2601 8.42762ZM15.7268 6.29425C15.7268 6.00091 15.9667 5.76097 16.2601 5.76097H21.5934C21.8867 5.76097 22.1267 6.00092 22.1267 6.29425C22.1267 6.58758 21.8867 6.82753 21.5934 6.82753H16.2601C15.9667 6.82753 15.7268 6.58758 15.7268 6.29425ZM16.2601 11.0942H21.5934C21.8867 11.0942 22.1267 11.3342 22.1267 11.6275C22.1267 11.9208 21.8867 12.1608 21.5934 12.1608H16.2601C15.9667 12.1608 15.7268 11.9208 15.7268 11.6275C15.7268 11.3342 15.9667 11.0942 16.2601 11.0942ZM16.2601 13.7609H21.5934C21.8867 13.7609 22.1267 14.0008 22.1267 14.2942C22.1267 14.5875 21.8867 14.8275 21.5934 14.8275H16.2601C15.9667 14.8275 15.7268 14.5875 15.7268 14.2942C15.7268 14.0008 15.9667 13.7609 16.2601 13.7609Z" fill="#1A4ADA"/>
</svg>
